# File created by Blade
# Date/Time:  Wed Jan 21 17:34:04 2015
# Frame Rate: 120.000 fps
#------------------------------------------------------
:FULLY-SPECIFIED
:DEGREES
610
root 18.558237 5.556296 -17.281453 -189.305477 -8.073529 -129.478707
Spine 20.327846 -1.084015 26.062599
Head 6.966609 -36.661343 34.373212
LeftShoulder -0.727570 -8.936438 18.279253
LeftArm -51.139571 29.872262 -103.531966
LeftForeArm -12.477313 -0.000000 87.320989
LeftHand -19.139390 -0.000000 30.622883
LeftHandThumb1 -26.253704 0.000000 33.147579
RightShoulder -14.772351 -8.366699 21.531533
RightArm -15.366931 42.750836 58.320682
RightForeArm 18.681431 -0.000000 23.016111
RightHand -7.025548 -0.000000 -18.943039
RightHandThumb1 -24.326973 -0.000000 -32.862282
LeftUpLeg -104.116228 -7.395683 -36.207578
LeftLeg 129.884144 -0.000000 -0.000000
LeftFoot 31.074721 23.055425 -2.556311
LeftToeBase 25.755369 -0.000000 -0.000000
RightUpLeg -5.965439 5.350134 -24.761244
RightLeg 132.853506 -0.000000 -0.000000
RightFoot 33.166785 -25.210084 -18.800022
RightToeBase 22.098500 -0.000000 -0.000000
611
root 18.540327 5.552928 -17.324634 -188.946312 -8.483322 -129.590186
Spine 19.830346 -1.233794 26.162589
Head 6.880823 -37.019207 34.514437
LeftShoulder -0.684796 -9.035057 18.177733
LeftArm -51.196812 29.952905 -103.761973
LeftForeArm -12.402732 -0.000000 86.655546
LeftHand -19.052185 -0.000000 30.702711
LeftHandThumb1 -26.253704 0.000000 33.147579
RightShoulder -14.898909 -8.249261 21.409158
RightArm -16.145421 44.226564 57.048741
RightForeArm 20.944702 -0.000000 22.478940
RightHand -6.778101 -0.000000 -18.142039
RightHandThumb1 -24.326973 -0.000000 -32.862282
LeftUpLeg -104.063708 -7.770007 -36.483349
LeftLeg 129.879326 -0.000000 -0.000000
LeftFoot 31.015028 23.023591 -2.444603
LeftToeBase 25.737573 -0.000000 -0.000000
RightUpLeg -5.559080 5.210806 -25.008911
RightLeg 132.790863 -0.000000 -0.000000
RightFoot 33.431177 -25.226509 -18.836645
RightToeBase 22.094282 -0.000000 -0.000000
612
root 18.525779 5.551645 -17.365943 -188.611008 -8.973876 -129.672554
Spine 19.333166 -1.496072 26.258477
Head 6.756544 -37.321942 34.685698
LeftShoulder -0.690716 -9.152256 18.106712
LeftArm -51.226683 29.935443 -103.933731
LeftForeArm -12.329817 -0.000000 85.999061
LeftHand -19.043173 -0.000000 30.493038
LeftHandThumb1 -26.253704 0.000000 33.147579
RightShoulder -14.986008 -8.165278 21.288325
RightArm -16.981828 45.724559 55.720609
RightForeArm 22.922337 -0.000000 22.000608
RightHand -6.637953 -0.000000 -17.092993
RightHandThumb1 -24.326973 -0.000000 -32.862282
LeftUpLeg -103.957004 -8.183591 -36.778392
LeftLeg 129.869065 -0.000000 -0.000000
LeftFoot 30.965914 23.007429 -2.254470
LeftToeBase 25.709263 -0.000000 -0.000000
RightUpLeg -5.080467 5.028609 -25.201477
RightLeg 132.748978 -0.000000 -0.000000
RightFoot 33.657147 -25.136295 -18.809983
RightToeBase 21.997129 -0.000000 -0.000000
613
root 18.510432 5.553284 -17.400105 -188.156137 -9.452298 -129.714932
Spine 18.714854 -1.740448 26.427495
Head 6.657083 -37.603645 34.781524
LeftShoulder -0.735486 -9.232639 17.956762
LeftArm -51.259668 29.916092 -104.074937
LeftForeArm -12.249701 -0.000000 85.319047
LeftHand -18.951409 -0.000000 30.293057
LeftHandThumb1 -26.253704 0.000000 33.147579
RightShoulder -15.139102 -8.091282 21.119512
RightArm -17.751645 47.060044 54.441900
RightForeArm 24.478518 -0.000000 21.559491
RightHand -6.493340 -0.000000 -16.007507
RightHandThumb1 -24.326973 -0.000000 -32.862282
LeftUpLeg -103.949048 -8.658348 -37.015374
LeftLeg 129.853016 -0.000000 -0.000000
LeftFoot 30.879819 22.878987 -1.939023
LeftToeBase 25.845855 -0.000000 -0.000000
RightUpLeg -4.741619 4.799058 -25.320559
RightLeg 132.717084 -0.000000 -0.000000
RightFoot 33.836623 -25.037864 -18.748056
RightToeBase 22.119823 -0.000000 -0.000000
614
root 18.498578 5.554085 -17.435621 -187.600543 -9.802432 -129.570342
Spine 17.937996 -1.893211 26.882675
Head 6.677369 -37.911983 34.576077
LeftShoulder -0.833412 -9.241677 17.815331
LeftArm -51.278172 29.869865 -104.326376
LeftForeArm -12.098226 -0.000000 84.585594
LeftHand -18.907521 0.000000 30.196772
LeftHandThumb1 -26.253704 0.000000 33.147579
RightShoulder -15.311033 -8.189801 20.850919
RightArm -18.513950 48.402096 53.218122
RightForeArm 25.874054 0.000000 21.272265
RightHand -6.354727 -0.000000 -15.178124
RightHandThumb1 -24.326973 -0.000000 -32.862282
LeftUpLeg -104.167028 -9.157637 -37.064065
LeftLeg 129.894526 -0.000000 -0.000000
LeftFoot 30.827551 22.879814 -1.700782
LeftToeBase 25.907993 -0.000000 -0.000000
RightUpLeg -4.560366 4.603335 -25.196379
RightLeg 132.680158 -0.000000 -0.000000
RightFoot 33.967635 -24.935031 -18.776429
RightToeBase 22.409702 -0.000000 -0.000000
615
root 18.487349 5.554878 -17.473298 -187.272375 -10.192043 -129.778983
Spine 17.597164 -2.064808 26.820139
Head 6.399546 -38.127914 34.858779
LeftShoulder -0.877187 -9.328201 17.758299
LeftArm -51.195604 29.808994 -104.410651
LeftForeArm -12.119978 -0.000000 83.880118
LeftHand -18.840852 -0.000000 30.301890
LeftHandThumb1 -26.253704 0.000000 33.147579
RightShoulder -15.482672 -8.183969 20.812682
RightArm -19.223470 49.951293 51.999575
RightForeArm 26.962784 -0.000000 20.956714
RightHand -5.842429 -0.000000 -13.997038
RightHandThumb1 -24.326973 -0.000000 -32.862282
LeftUpLeg -104.088816 -9.367762 -37.458509
LeftLeg 129.894519 -0.000000 -0.000000
LeftFoot 30.882750 22.690208 -1.419583
LeftToeBase 25.509318 -0.000000 -0.000000
RightUpLeg -4.140119 4.528316 -25.457479
RightLeg 132.679956 -0.000000 -0.000000
RightFoot 34.224802 -24.926548 -18.649341
RightToeBase 22.238317 -0.000000 -0.000000
616
root 18.482960 5.563754 -17.508169 -187.030981 -10.560979 -130.011568
Spine 17.431659 -2.221022 26.699297
Head 5.965224 -38.324220 35.279159
LeftShoulder -0.873240 -9.537348 17.713447
LeftArm -51.129030 29.686189 -104.476059
LeftForeArm -11.951977 -0.000000 83.133904
LeftHand -18.746310 -0.000000 30.004641
LeftHandThumb1 -26.253704 0.000000 33.147579
RightShoulder -15.624148 -8.028835 20.770678
RightArm -19.942172 51.222032 50.785516
RightForeArm 28.174626 -0.000000 20.492027
RightHand -5.373217 -0.000000 -13.279584
RightHandThumb1 -24.326973 -0.000000 -32.862282
LeftUpLeg -103.997835 -9.432003 -37.859909
LeftLeg 129.857029 -0.000000 -0.000000
LeftFoot 31.104154 23.131519 -2.052962
LeftToeBase 24.015169 -0.000000 -0.000000
RightUpLeg -3.679049 4.521979 -25.683086
RightLeg 132.715073 -0.000000 -0.000000
RightFoot 34.478656 -24.910218 -18.460202
RightToeBase 21.983221 -0.000000 -0.000000
617
root 18.471967 5.566011 -17.541055 -186.697019 -10.929222 -130.180104
Spine 17.114492 -2.402719 26.712182
Head 5.625907 -38.532052 35.502396
LeftShoulder -0.917205 -9.699054 17.611754
LeftArm -51.099621 29.528521 -104.555737
LeftForeArm -11.910246 0.000000 82.418351
LeftHand -18.585275 -0.000000 29.769506
LeftHandThumb1 -26.253704 0.000000 33.147579
RightShoulder -15.766039 -7.979997 20.582525
RightArm -20.576750 52.302107 49.664698
RightForeArm 28.914003 -0.000000 19.898248
RightHand -4.885410 -0.000000 -11.825363
RightHandThumb1 -24.326973 -0.000000 -32.862282
LeftUpLeg -103.945747 -9.636776 -38.211011
LeftLeg 129.815064 -0.000000 -0.000000
LeftFoot 31.169353 23.243865 -2.020708
LeftToeBase 23.685218 -0.000000 -0.000000
RightUpLeg -3.286428 4.480634 -25.858271
RightLeg 132.726248 -0.000000 -0.000000
RightFoot 34.674047 -24.938770 -18.475707
RightToeBase 21.994405 -0.000000 -0.000000
618
root 18.472985 5.585807 -17.566411 -186.201164 -11.129725 -129.954905
Spine 16.547809 -2.486225 27.258940
Head 5.514802 -38.690295 35.333506
LeftShoulder -0.999614 -9.709440 17.428003
LeftArm -51.009338 29.427316 -104.747275
LeftForeArm -11.622566 0.000000 81.661898
LeftHand -18.647112 -0.000000 29.816458
LeftHandThumb1 -26.253704 0.000000 33.147579
RightShoulder -15.896626 -8.003840 20.177583
RightArm -21.294476 53.396945 48.535557
RightForeArm 29.245150 0.000000 19.391920
RightHand -4.502443 -0.000000 -10.744631
RightHandThumb1 -24.326973 -0.000000 -32.862282
LeftUpLeg -104.253125 -9.897065 -38.109785
LeftLeg 129.928184 -0.000000 -0.000000
LeftFoot 30.873023 22.488866 -0.904943
LeftToeBase 25.421430 -0.000000 -0.000000
RightUpLeg -3.175965 4.468909 -25.440312
RightLeg 132.762870 -0.000000 -0.000000
RightFoot 34.799065 -24.842343 -18.638936
RightToeBase 22.506488 -0.000000 -0.000000
619
root 18.470416 5.601899 -17.587775 -185.684417 -11.293302 -129.772555
Spine 16.005474 -2.565935 27.773070
Head 5.382475 -38.797565 35.177468
LeftShoulder -1.124321 -9.775889 17.214730
LeftArm -50.976110 29.273360 -104.927939
LeftForeArm -11.555702 -0.000000 80.873183
LeftHand -18.406356 -0.000000 29.692126
LeftHandThumb1 -26.253704 0.000000 33.147579
RightShoulder -16.011266 -8.053350 19.817235
RightArm -22.069192 54.560184 47.376233
RightForeArm 29.404718 0.000000 19.186228
RightHand -4.198115 -0.000000 -10.021290
RightHandThumb1 -24.326973 -0.000000 -32.862282
LeftUpLeg -104.584470 -10.156929 -38.044578
LeftLeg 129.972603 -0.000000 -0.000000
LeftFoot 30.817781 22.443377 -0.610195
LeftToeBase 25.613493 -0.000000 -0.000000
RightUpLeg -3.127847 4.503872 -25.097904
RightLeg 132.808862 -0.000000 -0.000000
RightFoot 34.893258 -24.792654 -18.826582
RightToeBase 22.661374 -0.000000 -0.000000
620
root 18.466793 5.618735 -17.608381 -185.195538 -11.485249 -129.676504
Spine 15.535421 -2.677681 28.150284
Head 5.233158 -38.850758 35.088212
LeftShoulder -1.230375 -9.836552 17.026942
LeftArm -50.901109 29.114473 -105.083372
LeftForeArm -11.342987 0.000000 80.084933
LeftHand -18.398873 -0.000000 29.829339
LeftHandThumb1 -26.253704 0.000000 33.147579
RightShoulder -16.125681 -8.086369 19.595510
RightArm -22.898155 55.855728 46.151886
RightForeArm 29.814391 -0.000000 19.220500
RightHand -3.757367 0.000000 -10.010050
RightHandThumb1 -24.326973 -0.000000 -32.862282
LeftUpLeg -104.869902 -10.389019 -38.042747
LeftLeg 129.990907 -0.000000 -0.000000
LeftFoot 30.856685 22.481424 -0.529997
LeftToeBase 25.391904 -0.000000 -0.000000
RightUpLeg -3.005323 4.590027 -24.819592
RightLeg 132.857331 -0.000000 -0.000000
RightFoot 34.904736 -24.616823 -19.023492
RightToeBase 22.948013 -0.000000 -0.000000
621
root 18.452042 5.619821 -17.630251 -184.767839 -11.785118 -129.810243
Spine 15.154783 -2.855341 28.267279
Head 4.960148 -38.929991 35.121523
LeftShoulder -1.322203 -9.908001 16.852331
LeftArm -50.729609 28.987905 -105.180484
LeftForeArm -11.385202 -0.000000 79.220440
LeftHand -18.162696 -0.000000 29.989771
LeftHandThumb1 -26.253704 0.000000 33.147579
RightShoulder -16.298388 -8.085350 19.437221
RightArm -23.610072 57.074810 45.008849
RightForeArm 30.669009 -0.000000 19.234300
RightHand -3.352525 -0.000000 -9.703694
RightHandThumb1 -24.326973 -0.000000 -32.862282
LeftUpLeg -104.938816 -10.657371 -38.282658
LeftLeg 129.901252 -0.000000 -0.000000
LeftFoot 31.093717 23.066154 -1.162343
LeftToeBase 23.853596 -0.000000 -0.000000
RightUpLeg -2.761668 4.664751 -24.874219
RightLeg 132.887432 -0.000000 -0.000000
RightFoot 34.960919 -24.495101 -19.074662
RightToeBase 22.926990 -0.000000 -0.000000
622
root 18.447511 5.620793 -17.663669 -184.331328 -12.169899 -129.886853
Spine 14.666445 -3.159687 28.399998
Head 4.839033 -39.014307 35.077619
LeftShoulder -1.444082 -9.962649 16.723194
LeftArm -50.621621 28.835262 -105.264673
LeftForeArm -11.329871 -0.000000 78.382109
LeftHand -18.125677 -0.000000 29.691410
LeftHandThumb1 -26.253704 0.000000 33.147579
RightShoulder -16.281211 -7.852278 19.319088
RightArm -24.761238 56.982540 43.728342
RightForeArm 32.492885 -0.000000 19.661639
RightHand -2.903250 -0.000000 -9.216171
RightHandThumb1 -24.326973 -0.000000 -32.862282
LeftUpLeg -105.013891 -11.049283 -38.478652
LeftLeg 129.899005 -0.000000 -0.000000
LeftFoot 31.158939 23.202259 -1.228752
LeftToeBase 23.477214 -0.000000 -0.000000
RightUpLeg -2.430054 4.609113 -24.832849
RightLeg 132.881240 -0.000000 -0.000000
RightFoot 34.942056 -24.520243 -19.126682
RightToeBase 22.991990 -0.000000 -0.000000
